<svg xmlns="http://www.w3.org/2000/svg" x="0px" y="0px"
width="16" height="16"
viewBox="0 0 172 172"
style=" fill:#000000;"><g fill="none" fill-rule="nonzero" stroke="none" stroke-width="1" stroke-linecap="butt" stroke-linejoin="miter" stroke-miterlimit="10" stroke-dasharray="" stroke-dashoffset="0" font-family="none" font-weight="none" font-size="none" text-anchor="none" style="mix-blend-mode: normal"><path d="M0,172v-172h172v172z" fill="none"></path><g fill="#ffffff"><path d="M134.375,10.75c-14.78125,0 -26.875,12.09375 -26.875,26.875c0,1.84766 0.20996,3.61133 0.5459,5.375l-48.71094,21.91993c-4.91308,-6.71875 -12.80761,-11.16993 -21.70996,-11.16993c-14.78125,0 -26.875,12.09375 -26.875,26.875c0,14.78125 12.09375,26.875 26.875,26.875c8.94433,0 16.92285,-4.49317 21.79395,-11.2959l48.75293,21.66797c-0.41992,1.84766 -0.67187,3.77929 -0.67187,5.75293c0,14.78125 12.09375,26.875 26.875,26.875c14.78125,0 26.875,-12.09375 26.875,-26.875c0,-14.78125 -12.09375,-26.875 -26.875,-26.875c-8.94433,0 -16.92285,4.49317 -21.79395,11.2959l-48.75293,-21.62597c0.41993,-1.88966 0.67188,-3.82129 0.67188,-5.79493c0,-2.01562 -0.25195,-3.98926 -0.67187,-5.87891l48.45899,-21.91992c4.87109,7.05469 12.97558,11.67382 22.08789,11.67382c14.78125,0 26.875,-12.09375 26.875,-26.875c0,-14.78125 -12.09375,-26.875 -26.875,-26.875zM134.375,21.5c8.98633,0 16.125,7.13868 16.125,16.125c0,8.98633 -7.13867,16.125 -16.125,16.125c-8.98632,0 -16.125,-7.13867 -16.125,-16.125c0,-8.98632 7.13868,-16.125 16.125,-16.125zM37.625,64.5c8.98633,0 16.125,7.13868 16.125,16.125c0,8.98633 -7.13867,16.125 -16.125,16.125c-8.98632,0 -16.125,-7.13867 -16.125,-16.125c0,-8.98632 7.13868,-16.125 16.125,-16.125zM134.375,107.5c8.98633,0 16.125,7.13868 16.125,16.125c0,8.98633 -7.13867,16.125 -16.125,16.125c-8.98632,0 -16.125,-7.13867 -16.125,-16.125c0,-8.98632 7.13868,-16.125 16.125,-16.125z"></path></g></g></svg>