<svg width="34" height="31" fill="none" xmlns="http://www.w3.org/2000/svg"><path fill-rule="evenodd" clip-rule="evenodd" d="M16.819 0C7.713 0 .319 7.111.319 15.89c0 7.023 4.73 12.973 11.283 15.08.821.146 1.125-.341 1.125-.77 0-.38-.01-1.376-.02-2.702-4.589.956-5.561-2.127-5.561-2.127-.75-1.834-1.834-2.321-1.834-2.321-1.499-.986.112-.966.112-.966 1.65.117 2.532 1.639 2.532 1.639 1.469 2.428 3.86 1.726 4.801 1.317.152-1.025.578-1.727 1.043-2.127-3.666-.4-7.515-1.765-7.515-7.852 0-1.736.638-3.15 1.701-4.263-.172-.4-.739-2.019.163-4.204 0 0 1.387-.43 4.537 1.629a16.59 16.59 0 0 1 4.133-.537c1.398.01 2.816.186 4.133.537 3.15-2.058 4.537-1.629 4.537-1.629.902 2.185.334 3.804.162 4.204 1.054 1.112 1.692 2.527 1.692 4.263 0 6.106-3.86 7.442-7.536 7.842.587.488 1.124 1.463 1.124 2.946 0 2.127-.02 3.834-.02 4.36 0 .43.294.917 1.134.761C28.6 28.863 33.32 22.913 33.32 15.9c0-8.789-7.394-15.9-16.5-15.9z" fill="#000"/></svg>