<svg width="425" height="76" xmlns="http://www.w3.org/2000/svg"><g fill="none" fill-rule="evenodd"><path d="M155 39.38c0 1.8.34 3.46 1.02 4.98.68 1.52 1.6 2.84 2.76 3.96 1.16 1.12 2.51 1.99 4.05 2.61 1.54.62 3.17.93 4.89.93a12.97 12.97 0 008.97-3.54c1.18-1.12 2.11-2.44 2.79-3.96.68-1.52 1.02-3.18 1.02-4.98 0-1.8-.34-3.46-1.02-4.98-.68-1.52-1.61-2.84-2.79-3.96a12.97 12.97 0 00-8.97-3.54c-1.72 0-3.35.31-4.89.93-1.54.62-2.89 1.49-4.05 2.61a12.592 12.592 0 00-2.76 3.96c-.68 1.52-1.02 3.18-1.02 4.98zm-12.3 0c0-3.36.62-6.49 1.86-9.39 1.24-2.9 2.96-5.43 5.16-7.59s4.83-3.85 7.89-5.07c3.06-1.22 6.43-1.83 10.11-1.83 3.64 0 7 .61 10.08 1.83 3.08 1.22 5.73 2.91 7.95 5.07 2.22 2.16 3.95 4.69 5.19 7.59 1.24 2.9 1.86 6.03 1.86 9.39 0 3.36-.62 6.49-1.86 9.39-1.24 2.9-2.97 5.43-5.19 7.59s-4.87 3.85-7.95 5.07c-3.08 1.22-6.44 1.83-10.08 1.83-3.68 0-7.05-.61-10.11-1.83-3.06-1.22-5.69-2.91-7.89-5.07-2.2-2.16-3.92-4.69-5.16-7.59-1.24-2.9-1.86-6.03-1.86-9.39zm92.32-7.5c-2.72-3.32-6.08-4.98-10.08-4.98-1.76 0-3.39.32-4.89.96-1.5.64-2.79 1.51-3.87 2.61-1.08 1.1-1.93 2.41-2.55 3.93-.62 1.52-.93 3.16-.93 4.92 0 1.8.31 3.46.93 4.98.62 1.52 1.48 2.84 2.58 3.96s2.39 2 3.87 2.64c1.48.64 3.08.96 4.8.96 3.76 0 7.14-1.6 10.14-4.8v13.92l-1.2.42c-1.8.64-3.48 1.11-5.04 1.41-1.56.3-3.1.45-4.62.45-3.12 0-6.11-.59-8.97-1.77a23.454 23.454 0 01-7.56-4.98c-2.18-2.14-3.93-4.68-5.25-7.62-1.32-2.94-1.98-6.15-1.98-9.63 0-3.48.65-6.67 1.95-9.57 1.3-2.9 3.04-5.4 5.22-7.5 2.18-2.1 4.71-3.74 7.59-4.92 2.88-1.18 5.9-1.77 9.06-1.77 1.8 0 3.57.19 5.31.57 1.74.38 3.57.97 5.49 1.77v14.04zm30.8-5.16V62h-11.76V26.72h-9.66v-9.96h31.08v9.96h-9.66zM307.4 45.2l-5.28-15.06-5.28 15.06h10.56zm3.12 8.94h-16.8l-2.7 7.86h-12.54l17.22-45.24h12.84L325.76 62h-12.54l-2.7-7.86zm25.16-37.38L346.6 44.3l10.98-27.54h12.78L351.28 62h-9.36L322.9 16.76h12.78zm50.78 22.62c0 1.8.34 3.46 1.02 4.98.68 1.52 1.6 2.84 2.76 3.96 1.16 1.12 2.51 1.99 4.05 2.61 1.54.62 3.17.93 4.89.93a12.97 12.97 0 008.97-3.54c1.18-1.12 2.11-2.44 2.79-3.96.68-1.52 1.02-3.18 1.02-4.98 0-1.8-.34-3.46-1.02-4.98-.68-1.52-1.61-2.84-2.79-3.96a12.97 12.97 0 00-8.97-3.54c-1.72 0-3.35.31-4.89.93-1.54.62-2.89 1.49-4.05 2.61a12.592 12.592 0 00-2.76 3.96c-.68 1.52-1.02 3.18-1.02 4.98zm-12.3 0c0-3.36.62-6.49 1.86-9.39 1.24-2.9 2.96-5.43 5.16-7.59s4.83-3.85 7.89-5.07c3.06-1.22 6.43-1.83 10.11-1.83 3.64 0 7 .61 10.08 1.83 3.08 1.22 5.73 2.91 7.95 5.07 2.22 2.16 3.95 4.69 5.19 7.59 1.24 2.9 1.86 6.03 1.86 9.39 0 3.36-.62 6.49-1.86 9.39-1.24 2.9-2.97 5.43-5.19 7.59s-4.87 3.85-7.95 5.07c-3.08 1.22-6.44 1.83-10.08 1.83-3.68 0-7.05-.61-10.11-1.83-3.06-1.22-5.69-2.91-7.89-5.07-2.2-2.16-3.92-4.69-5.16-7.59-1.24-2.9-1.86-6.03-1.86-9.39z" fill="#443D46"/><g fill-rule="nonzero"><path d="M2.109 0A2.11 2.11 0 000 2.111v21.111a2.11 2.11 0 002.109 2.111h75.913a2.11 2.11 0 002.108-2.11V2.11A2.11 2.11 0 0078.022 0H2.109z" fill="#E86C60"/><path d="M31.63 14.778H18.978a2.11 2.11 0 01-2.108-2.111 2.11 2.11 0 012.108-2.111H31.63a2.11 2.11 0 012.11 2.11 2.11 2.11 0 01-2.11 2.112zM46.391 14.778h-4.217a2.11 2.11 0 01-2.109-2.111 2.11 2.11 0 012.109-2.111h4.217a2.11 2.11 0 012.109 2.11 2.11 2.11 0 01-2.109 2.112z" fill="#C64B4B"/><path d="M2.109 50.667A2.11 2.11 0 000 52.777V73.89A2.11 2.11 0 002.109 76h75.913a2.11 2.11 0 002.108-2.111V52.778a2.11 2.11 0 00-2.108-2.111H2.109z" fill="#9BCED3"/><path d="M31.63 65.444H18.978a2.11 2.11 0 01-2.108-2.11 2.11 2.11 0 012.108-2.112H31.63a2.11 2.11 0 012.11 2.111 2.11 2.11 0 01-2.11 2.111zM46.391 65.444h-4.217a2.11 2.11 0 01-2.109-2.11 2.11 2.11 0 012.109-2.112h4.217a2.11 2.11 0 012.109 2.111 2.11 2.11 0 01-2.109 2.111z" fill="#76B5B5"/><path d="M16.87 27.444v21.112a2.11 2.11 0 002.108 2.11h75.913A2.11 2.11 0 0097 48.557V27.444a2.11 2.11 0 00-2.109-2.11H18.978a2.11 2.11 0 00-2.108 2.11z" fill="#DDBE99"/><path d="M48.5 40.111H35.848A2.11 2.11 0 0133.739 38a2.11 2.11 0 012.109-2.111H48.5A2.11 2.11 0 0150.609 38a2.11 2.11 0 01-2.109 2.111zM63.26 40.111h-4.217A2.11 2.11 0 0156.935 38a2.11 2.11 0 012.108-2.111h4.218A2.11 2.11 0 0165.37 38a2.11 2.11 0 01-2.11 2.111z" fill="#C6A279"/></g></g></svg>