<svg width="1289" height="292" viewBox="0 0 1289 292" fill="none" xmlns="http://www.w3.org/2000/svg">
<g clip-path="url(#clip0)">
<path d="M132.5 13C131.833 19.8333 133.3 33.5 144.5 33.5C155.7 33.5 156.833 19.8333 156 13" stroke="#837F76" stroke-width="5"/>
<path d="M279.135 13C278.469 19.8333 279.935 33.5 291.135 33.5C302.335 33.5 303.469 19.8333 302.635 13" stroke="#837F76" stroke-width="5"/>
<rect x="357.585" y="18.3609" width="15" height="271" transform="rotate(-10 357.585 18.3609)" fill="url(#paint0_linear)"/>
<rect width="15" height="271" transform="matrix(-0.984808 -0.173648 -0.173648 0.984808 77.4154 18.5401)" fill="url(#paint1_linear)"/>
<rect x="357.733" y="13.8208" width="15" height="271" transform="rotate(2 357.733 13.8208)" fill="url(#paint2_linear)"/>
<rect width="15" height="271" transform="matrix(-0.999391 0.0348995 0.0348995 0.999391 77.2666 14)" fill="url(#paint3_linear)"/>
<path d="M334 289.524C334 292.473 343.626 291.967 355.5 291.967C367.374 291.967 377 291.967 377 289.524C377 284.75 371.72 280.786 361.585 280.007C360.398 279.916 356.745 280.708 355.5 280.708C354.255 280.708 350.602 279.916 349.415 280.007C339.28 280.786 334 284.75 334 289.524Z" fill="#BD4F4F"/>
<path d="M100 289.703C100 292.652 90.3741 292.146 78.5 292.146C66.6259 292.146 57 292.146 57 289.703C57 284.929 62.2799 280.965 72.4151 280.187C73.6017 280.095 77.2555 280.887 78.5 280.887C79.7445 280.887 83.3983 280.095 84.5849 280.187C94.7201 280.965 100 284.929 100 289.703Z" fill="#BD4F4F"/>
<path d="M391 289.524C391 292.473 400.626 291.967 412.5 291.967C424.374 291.967 434 291.967 434 289.524C434 284.75 428.72 280.786 418.585 280.007C417.398 279.916 413.745 280.708 412.5 280.708C411.255 280.708 407.602 279.916 406.415 280.007C396.28 280.786 391 284.75 391 289.524Z" fill="#BD4F4F"/>
<path d="M43 289.703C43 292.652 33.3741 292.146 21.5 292.146C9.62588 292.146 0 292.146 0 289.703C0 284.929 5.27991 280.965 15.4151 280.187C16.6017 280.095 20.2555 280.887 21.5 280.887C22.7445 280.887 26.3983 280.095 27.5849 280.187C37.7201 280.965 43 284.929 43 289.703Z" fill="#BD4F4F"/>
<path d="M150 39C150 41.7126 149.689 43.7324 148.903 45.0423C148.249 46.1324 147.103 47 144.5 47C142.137 47 140.947 46.162 140.224 45.0085C139.392 43.6818 139 41.644 139 39C139 36.356 139.392 34.3182 140.224 32.9915C140.947 31.838 142.137 31 144.5 31C146.386 31 147.651 31.7773 148.522 33.0554C149.455 34.4238 150 36.4841 150 39Z" stroke="#837F76" stroke-width="4"/>
<path d="M150 109C150 111.713 149.689 113.732 148.903 115.042C148.249 116.132 147.103 117 144.5 117C142.137 117 140.947 116.162 140.224 115.008C139.392 113.682 139 111.644 139 109C139 106.356 139.392 104.318 140.224 102.992C140.947 101.838 142.137 101 144.5 101C146.386 101 147.651 101.777 148.522 103.055C149.455 104.424 150 106.484 150 109Z" stroke="#837F76" stroke-width="4"/>
<path d="M297 39C297 41.7126 296.689 43.7324 295.903 45.0423C295.249 46.1324 294.103 47 291.5 47C289.137 47 287.947 46.162 287.224 45.0085C286.392 43.6818 286 41.644 286 39C286 36.356 286.392 34.3182 287.224 32.9915C287.947 31.838 289.137 31 291.5 31C293.386 31 294.651 31.7773 295.522 33.0554C296.455 34.4238 297 36.4841 297 39Z" stroke="#837F76" stroke-width="4"/>
<path d="M297 109C297 111.713 296.689 113.732 295.903 115.042C295.249 116.132 294.103 117 291.5 117C289.137 117 287.947 116.162 287.224 115.008C286.392 113.682 286 111.644 286 109C286 106.356 286.392 104.318 287.224 102.992C287.947 101.838 289.137 101 291.5 101C293.386 101 294.651 101.777 295.522 103.055C296.455 104.424 297 106.484 297 109Z" stroke="#837F76" stroke-width="4"/>
<path d="M150 53C150 55.7126 149.689 57.7324 148.903 59.0423C148.249 60.1324 147.103 61 144.5 61C142.137 61 140.947 60.162 140.224 59.0085C139.392 57.6818 139 55.644 139 53C139 50.356 139.392 48.3182 140.224 46.9915C140.947 45.838 142.137 45 144.5 45C146.386 45 147.651 45.7773 148.522 47.0554C149.455 48.4238 150 50.4841 150 53Z" stroke="#837F76" stroke-width="4"/>
<path d="M150 123C150 125.713 149.689 127.732 148.903 129.042C148.249 130.132 147.103 131 144.5 131C142.137 131 140.947 130.162 140.224 129.008C139.392 127.682 139 125.644 139 123C139 120.356 139.392 118.318 140.224 116.992C140.947 115.838 142.137 115 144.5 115C146.386 115 147.651 115.777 148.522 117.055C149.455 118.424 150 120.484 150 123Z" stroke="#837F76" stroke-width="4"/>
<path d="M297 53C297 55.7126 296.689 57.7324 295.903 59.0423C295.249 60.1324 294.103 61 291.5 61C289.137 61 287.947 60.162 287.224 59.0085C286.392 57.6818 286 55.644 286 53C286 50.356 286.392 48.3182 287.224 46.9915C287.947 45.838 289.137 45 291.5 45C293.386 45 294.651 45.7773 295.522 47.0554C296.455 48.4238 297 50.4841 297 53Z" stroke="#837F76" stroke-width="4"/>
<path d="M297 123C297 125.713 296.689 127.732 295.903 129.042C295.249 130.132 294.103 131 291.5 131C289.137 131 287.947 130.162 287.224 129.008C286.392 127.682 286 125.644 286 123C286 120.356 286.392 118.318 287.224 116.992C287.947 115.838 289.137 115 291.5 115C293.386 115 294.651 115.777 295.522 117.055C296.455 118.424 297 120.484 297 123Z" stroke="#837F76" stroke-width="4"/>
<path d="M150 67C150 69.7126 149.689 71.7324 148.903 73.0423C148.249 74.1324 147.103 75 144.5 75C142.137 75 140.947 74.162 140.224 73.0085C139.392 71.6818 139 69.644 139 67C139 64.356 139.392 62.3182 140.224 60.9915C140.947 59.838 142.137 59 144.5 59C146.386 59 147.651 59.7773 148.522 61.0554C149.455 62.4238 150 64.4841 150 67Z" stroke="#837F76" stroke-width="4"/>
<path d="M150 137C150 139.713 149.689 141.732 148.903 143.042C148.249 144.132 147.103 145 144.5 145C142.137 145 140.947 144.162 140.224 143.008C139.392 141.682 139 139.644 139 137C139 134.356 139.392 132.318 140.224 130.992C140.947 129.838 142.137 129 144.5 129C146.386 129 147.651 129.777 148.522 131.055C149.455 132.424 150 134.484 150 137Z" stroke="#837F76" stroke-width="4"/>
<path d="M150 179C150 181.713 149.689 183.732 148.903 185.042C148.249 186.132 147.103 187 144.5 187C142.137 187 140.947 186.162 140.224 185.008C139.392 183.682 139 181.644 139 179C139 176.356 139.392 174.318 140.224 172.992C140.947 171.838 142.137 171 144.5 171C146.386 171 147.651 171.777 148.522 173.055C149.455 174.424 150 176.484 150 179Z" stroke="#837F76" stroke-width="4"/>
<path d="M297 179C297 181.713 296.689 183.732 295.903 185.042C295.249 186.132 294.103 187 291.5 187C289.137 187 287.947 186.162 287.224 185.008C286.392 183.682 286 181.644 286 179C286 176.356 286.392 174.318 287.224 172.992C287.947 171.838 289.137 171 291.5 171C293.386 171 294.651 171.777 295.522 173.055C296.455 174.424 297 176.484 297 179Z" stroke="#837F76" stroke-width="4"/>
<path d="M297 67C297 69.7126 296.689 71.7324 295.903 73.0423C295.249 74.1324 294.103 75 291.5 75C289.137 75 287.947 74.162 287.224 73.0085C286.392 71.6818 286 69.644 286 67C286 64.356 286.392 62.3182 287.224 60.9915C287.947 59.838 289.137 59 291.5 59C293.386 59 294.651 59.7773 295.522 61.0554C296.455 62.4238 297 64.4841 297 67Z" stroke="#837F76" stroke-width="4"/>
<path d="M297 137C297 139.713 296.689 141.732 295.903 143.042C295.249 144.132 294.103 145 291.5 145C289.137 145 287.947 144.162 287.224 143.008C286.392 141.682 286 139.644 286 137C286 134.356 286.392 132.318 287.224 130.992C287.947 129.838 289.137 129 291.5 129C293.386 129 294.651 129.777 295.522 131.055C296.455 132.424 297 134.484 297 137Z" stroke="#837F76" stroke-width="4"/>
<path d="M150 81C150 83.7126 149.689 85.7324 148.903 87.0423C148.249 88.1324 147.103 89 144.5 89C142.137 89 140.947 88.162 140.224 87.0085C139.392 85.6818 139 83.644 139 81C139 78.356 139.392 76.3182 140.224 74.9915C140.947 73.838 142.137 73 144.5 73C146.386 73 147.651 73.7773 148.522 75.0554C149.455 76.4238 150 78.4841 150 81Z" stroke="#837F76" stroke-width="4"/>
<path d="M150 151C150 153.713 149.689 155.732 148.903 157.042C148.249 158.132 147.103 159 144.5 159C142.137 159 140.947 158.162 140.224 157.008C139.392 155.682 139 153.644 139 151C139 148.356 139.392 146.318 140.224 144.992C140.947 143.838 142.137 143 144.5 143C146.386 143 147.651 143.777 148.522 145.055C149.455 146.424 150 148.484 150 151Z" stroke="#837F76" stroke-width="4"/>
<path d="M150 193C150 195.713 149.689 197.732 148.903 199.042C148.249 200.132 147.103 201 144.5 201C142.137 201 140.947 200.162 140.224 199.008C139.392 197.682 139 195.644 139 193C139 190.356 139.392 188.318 140.224 186.992C140.947 185.838 142.137 185 144.5 185C146.386 185 147.651 185.777 148.522 187.055C149.455 188.424 150 190.484 150 193Z" stroke="#837F76" stroke-width="4"/>
<path d="M297 193C297 195.713 296.689 197.732 295.903 199.042C295.249 200.132 294.103 201 291.5 201C289.137 201 287.947 200.162 287.224 199.008C286.392 197.682 286 195.644 286 193C286 190.356 286.392 188.318 287.224 186.992C287.947 185.838 289.137 185 291.5 185C293.386 185 294.651 185.777 295.522 187.055C296.455 188.424 297 190.484 297 193Z" stroke="#837F76" stroke-width="4"/>
<path d="M297 81C297 83.7126 296.689 85.7324 295.903 87.0423C295.249 88.1324 294.103 89 291.5 89C289.137 89 287.947 88.162 287.224 87.0085C286.392 85.6818 286 83.644 286 81C286 78.356 286.392 76.3182 287.224 74.9915C287.947 73.838 289.137 73 291.5 73C293.386 73 294.651 73.7773 295.522 75.0554C296.455 76.4238 297 78.4841 297 81Z" stroke="#837F76" stroke-width="4"/>
<path d="M297 151C297 153.713 296.689 155.732 295.903 157.042C295.249 158.132 294.103 159 291.5 159C289.137 159 287.947 158.162 287.224 157.008C286.392 155.682 286 153.644 286 151C286 148.356 286.392 146.318 287.224 144.992C287.947 143.838 289.137 143 291.5 143C293.386 143 294.651 143.777 295.522 145.055C296.455 146.424 297 148.484 297 151Z" stroke="#837F76" stroke-width="4"/>
<path d="M150 95C150 97.7126 149.689 99.7324 148.903 101.042C148.249 102.132 147.103 103 144.5 103C142.137 103 140.947 102.162 140.224 101.008C139.392 99.6818 139 97.644 139 95C139 92.356 139.392 90.3182 140.224 88.9915C140.947 87.838 142.137 87 144.5 87C146.386 87 147.651 87.7773 148.522 89.0554C149.455 90.4238 150 92.4841 150 95Z" stroke="#837F76" stroke-width="4"/>
<path d="M150 165C150 167.713 149.689 169.732 148.903 171.042C148.249 172.132 147.103 173 144.5 173C142.137 173 140.947 172.162 140.224 171.008C139.392 169.682 139 167.644 139 165C139 162.356 139.392 160.318 140.224 158.992C140.947 157.838 142.137 157 144.5 157C146.386 157 147.651 157.777 148.522 159.055C149.455 160.424 150 162.484 150 165Z" stroke="#837F76" stroke-width="4"/>
<path d="M297 95C297 97.7126 296.689 99.7324 295.903 101.042C295.249 102.132 294.103 103 291.5 103C289.137 103 287.947 102.162 287.224 101.008C286.392 99.6818 286 97.644 286 95C286 92.356 286.392 90.3182 287.224 88.9915C287.947 87.838 289.137 87 291.5 87C293.386 87 294.651 87.7773 295.522 89.0554C296.455 90.4238 297 92.4841 297 95Z" stroke="#837F76" stroke-width="4"/>
<path d="M297 165C297 167.713 296.689 169.732 295.903 171.042C295.249 172.132 294.103 173 291.5 173C289.137 173 287.947 172.162 287.224 171.008C286.392 169.682 286 167.644 286 165C286 162.356 286.392 160.318 287.224 158.992C287.947 157.838 289.137 157 291.5 157C293.386 157 294.651 157.777 295.522 159.055C296.455 160.424 297 162.484 297 165Z" stroke="#837F76" stroke-width="4"/>
<line x1="290.909" y1="207.597" x2="285.909" y2="223.597" stroke="#837F76" stroke-width="4"/>
<line y1="-2" x2="16.7631" y2="-2" transform="matrix(0.298275 0.95448 0.95448 -0.298275 146.812 205.62)" stroke="#837F76" stroke-width="4"/>
<path d="M286 223C286 240.673 255.555 255 218 255C180.445 255 150 240.673 150 223" stroke="#B74747" stroke-width="12" stroke-linecap="round" stroke-linejoin="round"/>
<path d="M286 223.5C286 241.173 255.555 251 218 251C180.445 251 150 240.673 150 223" stroke="#DE5B5B" stroke-width="12" stroke-linecap="round" stroke-linejoin="round"/>
<path d="M294.951 207.682C294.475 210.961 293.595 213.548 289.636 212.974C285.678 212.4 285.074 209.598 285.549 206.318C286.025 203.039 287.4 200.524 291.358 201.098C295.317 201.672 295.426 204.402 294.951 207.682Z" fill="#837F76"/>
<path d="M140.861 206.301C141.337 209.581 142.217 212.167 146.175 211.593C150.134 211.019 150.738 208.217 150.263 204.938C149.787 201.658 148.412 199.144 144.453 199.718C140.495 200.292 140.385 203.022 140.861 206.301Z" fill="#837F76"/>
<rect x="50" width="335" height="15" rx="7.5" fill="#F0CC6F"/>
<mask id="mask0" mask-type="alpha" maskUnits="userSpaceOnUse" x="50" y="0" width="335" height="15">
<rect x="50" width="335" height="15" rx="7.5" fill="#F0CC6F"/>
</mask>
<g mask="url(#mask0)">
<rect x="44.64" y="7" width="360.013" height="32" fill="#070707" fill-opacity="0.06"/>
</g>
<path d="M214.991 127.072C214.793 127.09 214.165 127.153 213.599 127.198C200.546 128.375 188.319 135.418 180.575 146.243C176.263 152.262 173.505 159.09 172.463 166.321C172.095 168.846 172.05 169.591 172.05 173.014C172.05 176.437 172.095 177.182 172.463 179.707C174.961 196.964 187.241 211.463 203.896 216.836C206.879 217.797 210.023 218.453 213.599 218.848C214.991 219.001 221.01 219.001 222.402 218.848C228.574 218.165 233.803 216.638 238.959 214.006C239.75 213.601 239.902 213.494 239.795 213.404C239.723 213.35 236.354 208.831 232.311 203.369L224.963 193.442L215.755 179.815C210.688 172.322 206.52 166.196 206.484 166.196C206.448 166.187 206.412 172.241 206.394 179.635C206.367 192.58 206.358 193.101 206.196 193.407C205.963 193.847 205.783 194.026 205.406 194.224C205.118 194.368 204.867 194.395 203.51 194.395H201.956L201.543 194.134C201.273 193.964 201.076 193.739 200.941 193.478L200.752 193.074L200.77 175.062L200.797 157.041L201.076 156.691C201.219 156.502 201.525 156.26 201.74 156.143C202.109 155.963 202.253 155.945 203.807 155.945C205.639 155.945 205.945 156.017 206.421 156.538C206.556 156.682 211.541 164.192 217.506 173.239C223.472 182.285 231.629 194.637 235.635 200.701L242.912 211.724L243.28 211.481C246.541 209.361 249.991 206.343 252.722 203.199C258.534 196.524 262.28 188.385 263.538 179.707C263.906 177.182 263.951 176.437 263.951 173.014C263.951 169.591 263.906 168.846 263.538 166.321C261.041 149.064 248.76 134.565 232.105 129.193C229.167 128.24 226.041 127.584 222.537 127.189C221.675 127.099 215.737 127.001 214.991 127.072V127.072ZM233.803 154.867C234.234 155.083 234.584 155.496 234.71 155.927C234.782 156.161 234.8 161.156 234.782 172.412L234.755 188.564L231.907 184.198L229.05 179.832V168.091C229.05 160.5 229.086 156.233 229.14 156.026C229.284 155.523 229.598 155.128 230.029 154.894C230.398 154.706 230.533 154.688 231.943 154.688C233.273 154.688 233.506 154.706 233.803 154.867V154.867Z" fill="#FCFCFC"/>
<path d="M242.462 211.921C242.148 212.119 242.049 212.253 242.327 212.101C242.525 211.984 242.848 211.741 242.794 211.732C242.768 211.732 242.615 211.822 242.462 211.921ZM241.842 212.325C241.681 212.451 241.681 212.46 241.878 212.361C241.986 212.307 242.076 212.244 242.076 212.226C242.076 212.155 242.031 212.173 241.842 212.325ZM241.393 212.595C241.231 212.721 241.231 212.73 241.429 212.631C241.537 212.577 241.627 212.514 241.627 212.496C241.627 212.424 241.582 212.442 241.393 212.595ZM240.944 212.864C240.782 212.99 240.782 212.999 240.98 212.9C241.088 212.846 241.177 212.783 241.177 212.765C241.177 212.694 241.133 212.712 240.944 212.864ZM240.261 213.224C239.92 213.403 239.938 213.475 240.279 213.304C240.432 213.224 240.549 213.143 240.549 213.125C240.549 213.062 240.54 213.071 240.261 213.224Z" fill="#FCFCFC"/>
<path d="M550.132 141.436C547.487 139.287 544.841 137.716 542.196 136.724C539.551 135.649 536.988 135.112 534.508 135.112C531.367 135.112 528.804 135.856 526.82 137.344C524.836 138.832 523.844 140.775 523.844 143.172C523.844 144.825 524.34 146.189 525.332 147.264C526.324 148.339 527.605 149.289 529.176 150.116C530.829 150.86 532.648 151.521 534.632 152.1C536.699 152.679 538.724 153.299 540.708 153.96C548.644 156.605 554.431 160.16 558.068 164.624C561.788 169.005 563.648 174.751 563.648 181.86C563.648 186.655 562.821 190.995 561.168 194.88C559.597 198.765 557.241 202.113 554.1 204.924C551.041 207.652 547.239 209.76 542.692 211.248C538.228 212.819 533.144 213.604 527.44 213.604C515.619 213.604 504.665 210.091 494.58 203.064L504.996 183.472C508.633 186.696 512.229 189.093 515.784 190.664C519.339 192.235 522.852 193.02 526.324 193.02C530.292 193.02 533.227 192.111 535.128 190.292C537.112 188.473 538.104 186.407 538.104 184.092C538.104 182.687 537.856 181.488 537.36 180.496C536.864 179.421 536.037 178.471 534.88 177.644C533.723 176.735 532.193 175.908 530.292 175.164C528.473 174.42 526.241 173.593 523.596 172.684C520.455 171.692 517.355 170.617 514.296 169.46C511.32 168.22 508.633 166.608 506.236 164.624C503.921 162.64 502.02 160.16 500.532 157.184C499.127 154.125 498.424 150.281 498.424 145.652C498.424 141.023 499.168 136.848 500.656 133.128C502.227 129.325 504.376 126.101 507.104 123.456C509.915 120.728 513.304 118.62 517.272 117.132C521.323 115.644 525.828 114.9 530.788 114.9C535.417 114.9 540.253 115.561 545.296 116.884C550.339 118.124 555.175 119.984 559.804 122.464L550.132 141.436ZM594.705 117.504L610.825 177.892L630.665 117.504H650.009L669.849 177.892L685.969 117.504H711.389L683.489 211H658.689L640.337 156.812L621.985 211H597.185L569.285 117.504H594.705ZM745.549 117.504V211H721.245V117.504H745.549ZM765.081 211V117.504H789.385L834.273 174.668V117.504H858.453V211H834.273L789.385 153.836V211H765.081ZM925.265 158.672H973.501C973.501 163.632 973.294 168.137 972.881 172.188C972.468 176.239 971.641 180 970.401 183.472C968.665 188.349 966.309 192.689 963.333 196.492C960.357 200.212 956.844 203.353 952.793 205.916C948.825 208.396 944.444 210.297 939.649 211.62C934.854 212.943 929.812 213.604 924.521 213.604C917.246 213.604 910.592 212.405 904.557 210.008C898.605 207.611 893.48 204.263 889.181 199.964C884.882 195.583 881.534 190.375 879.137 184.34C876.74 178.223 875.541 171.485 875.541 164.128C875.541 156.853 876.698 150.199 879.013 144.164C881.41 138.047 884.758 132.839 889.057 128.54C893.438 124.241 898.688 120.893 904.805 118.496C910.922 116.099 917.742 114.9 925.265 114.9C935.02 114.9 943.576 117.008 950.933 121.224C958.29 125.44 964.118 131.971 968.417 140.816L945.353 150.364C943.204 145.239 940.393 141.56 936.921 139.328C933.532 137.096 929.646 135.98 925.265 135.98C921.628 135.98 918.321 136.683 915.345 138.088C912.369 139.411 909.806 141.353 907.657 143.916C905.59 146.396 903.937 149.413 902.697 152.968C901.54 156.523 900.961 160.491 900.961 164.872C900.961 168.84 901.457 172.519 902.449 175.908C903.524 179.297 905.094 182.232 907.161 184.712C909.228 187.192 911.79 189.135 914.849 190.54C917.908 191.863 921.462 192.524 925.513 192.524C927.91 192.524 930.225 192.276 932.457 191.78C934.689 191.201 936.673 190.333 938.409 189.176C940.228 187.936 941.716 186.365 942.873 184.464C944.03 182.563 944.816 180.248 945.229 177.52H925.265V158.672ZM1040.2 141.436C1037.55 139.287 1034.91 137.716 1032.26 136.724C1029.62 135.649 1027.05 135.112 1024.57 135.112C1021.43 135.112 1018.87 135.856 1016.89 137.344C1014.9 138.832 1013.91 140.775 1013.91 143.172C1013.91 144.825 1014.41 146.189 1015.4 147.264C1016.39 148.339 1017.67 149.289 1019.24 150.116C1020.9 150.86 1022.71 151.521 1024.7 152.1C1026.77 152.679 1028.79 153.299 1030.77 153.96C1038.71 156.605 1044.5 160.16 1048.13 164.624C1051.85 169.005 1053.71 174.751 1053.71 181.86C1053.71 186.655 1052.89 190.995 1051.23 194.88C1049.66 198.765 1047.31 202.113 1044.17 204.924C1041.11 207.652 1037.31 209.76 1032.76 211.248C1028.29 212.819 1023.21 213.604 1017.51 213.604C1005.69 213.604 994.732 210.091 984.646 203.064L995.062 183.472C998.7 186.696 1002.3 189.093 1005.85 190.664C1009.41 192.235 1012.92 193.02 1016.39 193.02C1020.36 193.02 1023.29 192.111 1025.19 190.292C1027.18 188.473 1028.17 186.407 1028.17 184.092C1028.17 182.687 1027.92 181.488 1027.43 180.496C1026.93 179.421 1026.1 178.471 1024.95 177.644C1023.79 176.735 1022.26 175.908 1020.36 175.164C1018.54 174.42 1016.31 173.593 1013.66 172.684C1010.52 171.692 1007.42 170.617 1004.36 169.46C1001.39 168.22 998.7 166.608 996.302 164.624C993.988 162.64 992.086 160.16 990.598 157.184C989.193 154.125 988.49 150.281 988.49 145.652C988.49 141.023 989.234 136.848 990.722 133.128C992.293 129.325 994.442 126.101 997.17 123.456C999.981 120.728 1003.37 118.62 1007.34 117.132C1011.39 115.644 1015.89 114.9 1020.85 114.9C1025.48 114.9 1030.32 115.561 1035.36 116.884C1040.41 118.124 1045.24 119.984 1049.87 122.464L1040.2 141.436ZM1122.22 138.088H1093.33V153.712H1120.61V174.296H1093.33V190.416H1122.22V211H1069.03V117.504H1122.22V138.088ZM1175.21 138.088V211H1150.91V138.088H1130.94V117.504H1195.17V138.088H1175.21Z" fill="#838383"/>
</g>
<defs>
<linearGradient id="paint0_linear" x1="365.085" y1="18.3609" x2="365.085" y2="289.361" gradientUnits="userSpaceOnUse">
<stop stop-color="#698C77"/>
<stop offset="1" stop-color="#749882"/>
</linearGradient>
<linearGradient id="paint1_linear" x1="7.5" y1="0" x2="7.5" y2="271" gradientUnits="userSpaceOnUse">
<stop stop-color="#698C77"/>
<stop offset="1" stop-color="#749882"/>
</linearGradient>
<linearGradient id="paint2_linear" x1="365.233" y1="13.8208" x2="365.233" y2="284.821" gradientUnits="userSpaceOnUse">
<stop stop-color="#81AF93"/>
<stop offset="1" stop-color="#92C2A5"/>
</linearGradient>
<linearGradient id="paint3_linear" x1="7.5" y1="0" x2="7.5" y2="271" gradientUnits="userSpaceOnUse">
<stop stop-color="#81AF93"/>
<stop offset="1" stop-color="#92C2A5"/>
</linearGradient>
<clipPath id="clip0">
<rect width="1289" height="292" fill="white"/>
</clipPath>
</defs>
</svg>
